<?xml version="1.0" encoding="UTF-8"?>
<!DOCTYPE svg PUBLIC "-//W3C//DTD SVG 1.1//EN" "http://www.w3.org/Graphics/SVG/1.1/DTD/svg11.dtd">

<svg xmlns="http://www.w3.org/2000/svg" xml:space="preserve" width="100%" height="auto" version="1.1" style="shape-rendering:geometricPrecision; text-rendering:geometricPrecision; image-rendering:optimizeQuality; fill-rule:evenodd; clip-rule:evenodd"
viewBox="0 0 5240 2800"
 xmlns:xlink="http://www.w3.org/1999/xlink">
 <defs>
  <style type="text/css">
   <![CDATA[
    .str0 {stroke:black;stroke-width:11.811}
    .fil7 {fill:none}
    .fil8 {fill:#CC66CC}
    .fil5 {fill:#FF82B5}
    .fil1 {fill:#B9357D}
    .fil9 {fill:#C96894}
    .fil4 {fill:#ED79AD}
    .fil0 {fill:#FF99CC}
    .fil13 {fill:black;fill-rule:nonzero}
    .fil11 {fill:#333333;fill-rule:nonzero}
    .fil10 {fill:#B9357D;fill-rule:nonzero}
    .fil12 {fill:#C96567;fill-rule:nonzero}
    .fil6 {fill:#C96894;fill-rule:nonzero}
    .fil3 {fill:#FF99CC;fill-rule:nonzero}
    .fil2 {fill:#FF99CC;fill-rule:nonzero}
	
	
	#hb1{
		animation-name:scl_txt;
		animation-delay:0s;
		transform-origin:1450px 1671px;
		animation-duration:3s;
		animation-iteration-count:infinite;
	
	}
	@keyframes scl_txt{
		0%{transform:scale(0.9);animation-timing-function:ease-in;}
		10%{transform:scale(1.1);animation-timing-function:ease-out;}
		50%{transform:scale(0.9)}
		100%{transform:scale(0.9)}
	}	
	#hb2{
		animation-name:scl_txt;
		animation-delay:1.5s;
		transform-origin:3687px 1081px;
		animation-duration:3s;
		animation-iteration-count:infinite;
		transform:scale(0.9)
	
	}

	#heart{
		animation-name:scl_heart;
		animation-delay:0s;
		transform-origin:4809px 1675px;
		animation-duration:1s;
		animation-iteration-count:infinite;
	}
	@keyframes scl_heart{
		0%{transform:scale(0.9);animation-timing-function:ease-in;}
		20%{transform:scale(1.1);animation-timing-function:ease-out;}
		100%{transform:scale(0.9)}
	}
	
	[id^="f_conf_"],[id^="s_conf_"],[id^="t_conf_"]{
		animation-name:cnft;
		animation-delay:0s;
		animation-duration:3s;
		animation-iteration-count:infinite;
		fill:yellow !important;
		transform:scale(0.4);
	}
	[id^="t_conf_"]{
		animation-delay:1.5s;
	}
	#f_conf_1{transform-origin:1519px 1252px;}
	#f_conf_2{transform-origin:3797px 416px;}
	#f_conf_3{transform-origin:1475px 524px;}
	#f_conf_4{transform-origin:2571px 2422px;}
	#f_conf_5{transform-origin:4895px 1922px;}
	#f_conf_6{transform-origin:1053px 2088px;}
	#f_conf_7{transform-origin:3449px 867px;}
	#f_conf_8{transform-origin:510px 1555px;}
	
	#s_conf_1{transform-origin:2953px 1537px;}
	#s_conf_2{transform-origin:1618px 869px;}
	#s_conf_3{transform-origin:3070px 314px;}
	#s_conf_4{transform-origin:4025px 2088px;}
	#s_conf_5{transform-origin:267px 1789px;}
	#s_conf_6{transform-origin:4346px 741px;}
	
	#t_conf_1{transform-origin:1446px 2361px;}
	#t_conf_2{transform-origin:569px 2193px;}
	#t_conf_3{transform-origin:2679px 868px;}
	#t_conf_4{transform-origin:2457px 501px;}
	#t_conf_5{transform-origin:4591px 301px;}
	#t_conf_6{transform-origin:4187px 165px;}
	#t_conf_7{transform-origin:3906px 674px;}
	#t_conf_8{transform-origin:2250px 1007px;}
	#t_conf_9{transform-origin:4223px 1291px;}
	#t_conf_10{transform-origin:820px 1355px;}
	#t_conf_11{transform-origin:1192px 904px;}
	#t_conf_12{transform-origin:4685px 866px;}
	
	@keyframes cnft{
		0%{transform:scale(0.4);animation-timing-function:ease-in;}
		50%{transform:scale(1);animation-timing-function:ease-out;}
		100%{transform:scale(0.4)}
	}
	
	
   ]]>
  </style>
 </defs>
<g id="cnft">
	<path class="fil0" d="M1837 873l32 41 41 -33 -13 -4c-2,1 -4,10 -5,12 0,2 -3,-1 -5,-2 -2,-2 -5,-4 -6,-6l-10 11 -6 -13 -13 7 -1 -14 -14 1z"/>
  <path class="fil1" d="M1474 2087l0 -49 -49 0 7 11c2,0 8,-6 10,-7 2,-1 2,3 3,6 0,2 1,5 1,7l14 -3 -3 14 13 2 -7 12 11 7z"/>
  <path class="fil1" d="M4038 1005l0 -49 -50 0 7 11c2,0 9,-6 11,-7 2,-1 2,3 2,5 1,3 2,6 2,8l13 -3 -2 14 13 2 -8 12 12 7z"/>
  <path class="fil2" d="M683 1126c-5,-1 -10,-5 -16,-4 -12,1 -24,4 -36,8 -12,6 -15,9 -20,21l-1 -7 7 9c20,8 35,21 27,44 -2,8 -24,20 -31,23 -25,10 -52,5 -77,18 -5,3 -11,7 -17,11l3 -8c3,7 6,10 12,15 4,5 15,22 13,29 -13,40 -60,31 -91,25l-33 -5 -16 -1 -20 4 5 -12c8,9 13,11 25,16 13,7 23,12 32,24 12,16 -17,22 -27,23 -11,0 -21,-2 -31,-3 -20,-2 -54,-8 -70,6l-5 3 1 -11c9,9 20,16 30,24l15 16c4,3 11,9 8,14 -9,19 -35,6 -51,8 -6,2 -10,3 -16,6l4 -6 0 11 2 7c11,11 28,23 33,38 2,3 3,11 -1,14 -8,6 -20,12 -30,14 -4,0 -8,-2 -9,-6 0,-4 2,-8 6,-9 6,-1 14,-4 19,-7l4 -3 -2 7 -1 -8 0 2c-14,-21 -41,-33 -35,-62 1,-7 20,-12 24,-12 9,-1 17,0 26,1 9,2 9,4 15,-2l0 10c-7,-8 -13,-15 -21,-21l-20 -16c-4,-4 -10,-7 -12,-12 -3,-6 3,-10 7,-12l-1 0 13 -7 14 -3c19,-1 36,-1 55,1 14,2 29,6 42,0l5 -3 -1 9c-8,-11 -16,-15 -28,-21 -11,-5 -30,-12 -33,-25 -3,-13 40,-11 46,-11 31,2 62,17 93,8 11,-4 11,-7 16,-18l0 6 -5 -14c-7,-9 -30,-26 -15,-37 5,-3 11,-8 17,-11 26,-12 52,-8 78,-18 10,-5 16,-9 25,-17l-3 5c2,-11 3,-17 -9,-23 -14,-9 -32,-15 -20,-34 4,-6 9,-12 15,-16 20,-12 49,-17 71,-9l0 0c3,1 5,3 6,6 0,4 -2,8 -6,9 -2,0 -3,0 -4,-1l0 0z"/>
  <path class="fil3" d="M3318 334c6,2 12,3 18,7 3,2 5,5 8,7 3,3 7,5 9,9 2,3 3,6 4,10 2,6 6,15 5,21 0,4 -2,7 -3,11 -6,12 -10,23 -12,37 0,3 0,7 1,11 2,7 5,15 10,21 13,21 31,32 55,38 12,3 21,2 31,-4 5,-3 10,-5 13,-9 5,-6 9,-21 8,-28 -1,-8 -4,-15 -7,-21 -4,-7 -14,-14 -21,-16 -5,-1 -13,1 -17,5 -5,4 -11,16 -9,23 8,33 32,56 60,71 9,6 19,11 29,13l13 2 13 -1 10 -2 7 -6 0 1 4 -6 -1 3 -1 -12 -5 -10 -5 -6 -8 -5 -13 -1 3 -1 -9 8c-2,10 -2,18 1,28 7,23 24,43 45,55 10,5 35,15 44,4l4 -7c0,0 0,0 0,0 1,-2 3,-2 5,-1 2,1 3,4 2,6l0 0c0,0 0,0 0,0 0,0 0,0 -1,0 0,0 0,0 0,0 -3,5 -5,11 -11,12 -20,8 -48,-4 -63,-17 -12,-11 -21,-24 -28,-38 -7,-11 -11,-33 -5,-45 1,-3 9,-12 13,-12 6,0 12,0 17,2 18,8 20,21 24,39 0,2 -4,7 -5,8 -17,18 -48,13 -68,4 -30,-12 -60,-36 -73,-66 -7,-15 -9,-29 1,-44 9,-13 23,-15 37,-8 12,6 19,15 23,27 9,27 -3,52 -29,62 -15,5 -31,2 -46,-4 -16,-6 -26,-14 -37,-27 -6,-7 -10,-13 -14,-21 -8,-17 -5,-32 0,-49l5 -12c2,-5 6,-11 5,-16 -2,-8 -5,-20 -11,-26 -5,-4 -10,-9 -15,-12 -4,-2 -9,-3 -13,-4l0 0c0,0 -1,0 -1,0 -2,-2 -2,-4 -1,-6 1,-2 3,-2 5,-2l0 0z"/>
  <polygon class="fil4" points="645,715 698,730 752,746 711,785 669,824 657,769 "/>
  <polygon class="fil5" points="3557,1306 3530,1326 3502,1345 3508,1378 3514,1412 3541,1392 3569,1372 3563,1339 "/>
  <path class="fil1" d="M2037 521l0 -49 -49 0 7 10c2,0 8,-5 11,-6 2,-1 2,3 2,5 1,2 1,5 1,7l14 -2 -3 13 14 3 -8 11 11 8z"/>
  <g id="f_conf_1">
   <path class="fil6" d="M1507 1232c-1,-13 1,-21 11,-27 11,-6 25,-2 32,9 11,21 3,52 -5,84 -32,-9 -64,-17 -75,-38 -7,-11 -3,-25 8,-32 10,-5 18,-3 29,4z"/>
  </g>
  <g id="s_conf_1">
   <path class="fil6" d="M2952 1510c3,-13 8,-19 19,-21 13,-2 25,7 27,19 4,23 -15,50 -34,77 -27,-19 -53,-39 -57,-62 -2,-13 6,-25 19,-27 11,-2 18,3 26,14z"/>
  </g>
  <g id="f_conf_2">
   <path class="fil6" d="M3796 389c3,-12 8,-19 19,-21 13,-2 25,7 27,19 4,24 -15,51 -34,77 -27,-19 -53,-38 -57,-62 -2,-12 6,-24 19,-26 11,-2 18,3 26,13z"/>
  </g>
  <g id="s_conf_2">
   <path class="fil1" d="M1608 846l-23 -8 10 22c-3,1 -22,8 -22,9l22 9 -9 23 22 -9 9 22c2,-1 8,-19 10,-22l22 9 -9 -22 22 -9 0 -1 -22 -9 9 -23 -22 10 -9 -23 -10 22z"/>
  </g>
  <g id="f_conf_3">
   <path class="fil1" d="M1465 520l-40 4c1,1 36,4 40,4l-26 32 32 -26 4 41 4 -41 32 26 -26 -32c5,0 39,-3 40,-4l-40 -4 26 -32 -32 27 -4 -42 -4 41 -32 -26 26 32z"/>
  </g>
  <g id="s_conf_3">
   <path class="fil0" d="M3058 304l-35 0c2,2 28,20 28,21 0,4 -9,27 -10,34l29 -21 29 21 -11 -34 29 -21 -36 0 -11 -34 -12 34z"/>
  </g>
  <g id="f_conf_4">
   <path class="fil0" d="M2556 2396l-29 0 15 26 -15 26 29 0c1,0 14,23 15,25l1 0c0,-2 14,-25 15,-25l28 -1 -14 -25 14 -26 -29 0 -14 -25 -16 25z"/>
  </g>
  <g id="f_conf_5">
   <path class="fil1" d="M4885 1899l-22 -8 9 22c-3,1 -22,8 -22,10l22 8 -9 23 22 -9 9 22c2,-1 8,-19 10,-22l22 9 -9 -22 23 -9 -1 -1 -22 -9 9 -23 -22 10 -9 -23 -1 0 -9 22z"/>
  </g>
  <g id="s_conf_4">
   <path class="fil1" d="M4015 2084l-40 4c1,1 36,4 40,4l-26 32 32 -26 4 41 4 -41 32 26 -27 -32c6,0 40,-3 41,-4l-41 -4 27 -32 -32 27 -4 -42 -4 41 -32 -26 26 32z"/>
  </g>
  <g id="f_conf_6">
   <polygon class="fil8" points="1057,2007 1060,2078 1134,2080 1065,2096 1075,2169 1048,2103 978,2126 1038,2088 1003,2023 1051,2075 1109,2030 1066,2086 1121,2135 1058,2102 1019,2165 1040,2098 972,2070 1042,2079 "/>
  </g>
  <g id="f_conf_7">
   <path class="fil0" d="M3439 843l-24 -9 10 24c-4,1 -23,8 -24,10l24 9 -10 24 24 -9 9 23c2,-1 9,-20 11,-23l23 9 -9 -24 23 -9 -23 -10 9 -24 -23 10 -10 -24 -10 23z"/>
  </g>
  <g id="f_conf_8">
   <path class="fil9" d="M493 1538l-25 6 18 18 -6 24 23 -7c2,0 17,18 19,18 0,-3 5,-24 6,-24l23 -7 -17 -17 6 -24 -24 6 -17 -17 0 0 -6 24z"/>
  </g>
  <g id="s_conf_5">
   <path class="fil9" d="M258 1780l-29 8c3,1 28,10 28,11 1,3 -2,24 -1,30l19 -24 28 11 -17 -25 19 -24 -29 8 -16 -25 -2 30z"/>
  </g>
  <g id="s_conf_6">
   <path class="fil0" d="M4303 698c5,12 12,24 18,36 -6,0 -20,7 -23,7l19 14 0 1 -9 9 14 0 -10 24 29 -28 5 24 5 -19c2,1 12,20 15,23l0 -28 24 19 -14 -24 19 -5 -14 -10 9 -14 -14 4 10 -34 -20 24 -5 -14 -5 19 0 0 -9 -34c-3,3 -8,19 -11,19l-9 -14 0 19 -24 -18z"/>
   <circle class="fil7" cx="4346" cy="741" r="26"/>
  </g>
  <g id="t_conf_1">
   <path class="fil9" d="M1401 2334c7,8 15,17 23,25 3,3 -15,10 -17,11l18 8 -5 10 11 -3 -2 21 17 -30 10 19 -1 -16c2,0 14,13 17,15l-6 -23 24 10 -17 -16 15 -8 -14 -5 4 -14 -10 7 0 -30 -10 24 -7 -10 0 16 -15 -25c-2,3 -3,17 -5,18l-10 -10 4 16 -24 -10z"/>
  </g>
  <g id="t_conf_2">
   <path class="fil1" d="M560 2189l-41 4c1,1 36,4 41,4l-27 32 32 -26 4 41 4 -41 32 26 -26 -32c5,0 39,-3 40,-4l-40 -4 26 -32 -32 26 -3 -41 -5 41 -32 -26 27 32z"/>
  </g>
  <g id="t_conf_3">
   <path class="fil0" d="M2668 857l-36 0c3,3 29,21 29,22 0,4 -9,27 -11,34l30 -21 29 21 -12 -34 29 -22 -35 0 -12 -34 -11 34z"/>
  </g>
  <g id="t_conf_4">
   <path class="fil0" d="M2447 497l-1 0 -42 4c1,1 38,4 43,4l-28 34 33 -28 5 44 0 0 4 -44 34 28 -28 -34c4,0 8,-1 11,-1 3,-1 8,0 11,-1 3,0 19,-1 21,-2l-43 -4 28 -34 -34 28 -4 -44 0 0 -4 44 -34 -28 28 34z"/>
  </g>
  <g id="t_conf_5">
   <path class="fil1" d="M4582 297l-1 0 -40 4c1,0 36,4 41,4l-27 32 32 -27 4 42 0 0 4 -41 32 26 -26 -32c4,0 7,-1 10,-1 4,-1 8,0 11,-1 3,0 18,-1 19,-3l-40 -3 26 -32 -32 26 -4 -41 0 0 -4 41 -32 -26 27 32z"/>
  </g>
  <g id="t_conf_6">
   <path class="fil0" d="M4172 139l-30 0 15 26 -14 25 28 0c1,0 15,23 16,26l0 0c1,-3 14,-26 16,-26l28 0 -14 -25 14 -26 -29 0 -15 -25 0 0 -15 25z"/>
  </g>
  <g id="t_conf_7">
   <polygon class="fil0" points="3897,650 3892,641 3892,655 3860,627 3883,664 3873,664 3883,674 3859,678 3859,678 3887,683 3869,688 3882,693 3864,711 3892,698 3892,698 3888,721 3906,698 3916,711 3916,693 3943,716 3944,715 3930,688 3939,683 3925,678 3953,669 3921,669 3935,659 3921,659 3943,632 3943,632 3911,655 3901,627 "/>
  </g>
  <g id="t_conf_8">
   <path class="fil9" d="M2241 1006l-33 13c1,0 32,-5 35,-6l-15 34 21 -30 13 34 -6 -36 34 15 -30 -21c4,-2 33,-12 33,-13l-35 6 15 -34 -21 30 -13 -34 6 36 -34 -15 30 21z"/>
  </g>
  <g id="t_conf_9">
   <path class="fil10" d="M4229 1278c12,-6 20,-7 29,1 10,7 12,22 4,32 -15,19 -48,22 -80,26 -4,-32 -7,-65 8,-83 8,-11 23,-12 32,-4 9,7 10,15 7,28z"/>
  </g>
  <g id="t_conf_10">
   <polygon class="fil9" points="809,1337 794,1321 806,1339 788,1327 803,1343 783,1334 801,1346 779,1341 799,1350 777,1349 799,1354 777,1358 800,1358 779,1366 800,1362 781,1374 802,1366 786,1381 805,1369 792,1387 808,1372 798,1393 811,1374 806,1396 815,1376 814,1398 819,1376 823,1399 823,1376 831,1397 827,1374 839,1394 831,1373 846,1389 834,1370 852,1383 837,1368 837,1367 857,1377 857,1376 839,1364 861,1369 841,1360 863,1361 841,1356 863,1352 841,1352 861,1344 840,1348 858,1336 838,1344 855,1328 835,1341 848,1323 832,1338 842,1318 829,1336 834,1314 825,1335 826,1312 821,1334 817,1312 817,1335 809,1313 813,1335 800,1316 "/>
  </g>
  <g id="t_conf_11">
   <path class="fil0" d="M1190 880c-1,0 -2,-1 -3,-2l-1 3 -4 -1 -1 3 -3 -1 -1 4 -3 -1 0 4 -4 0 1 4 -3 1 2 3 -3 2c0,1 2,2 2,3 0,0 -2,1 -3,2 0,0 3,2 3,2 0,1 -2,2 -2,3l3 2 -2 3 3 1 -1 4 4 0 0 3 0 1 3 -1 1 4 3 -1 1 4 4 -2 1 3 3 -2 2 3 3 -3 3 2 1 -3 3 1 1 -3 4 1 0 -4 4 1 0 -4 3 0 -1 -4 4 -1 -2 -3 3 -2c0,-1 -2,-2 -2,-2 0,-1 2,-2 3,-3l-3 -2 2 -3 -3 -2 2 -3 -4 -1 1 -4 -3 0 0 -4 -4 1 0 -4 -4 1 -1 -3 -3 1 -1 -3c-1,0 -3,2 -3,2 -1,0 -2,-2 -3,-2 0,0 -2,2 -2,2z"/>
  </g>
  <g id="t_conf_12">
   <polygon class="fil4" points="4678,844 4666,821 4673,845 4658,826 4669,848 4651,832 4666,851 4644,839 4663,855 4639,847 4662,859 4637,857 4661,864 4637,866 4661,868 4637,875 4662,873 4639,885 4664,877 4644,893 4666,881 4650,901 4669,884 4657,907 4673,887 4665,911 4678,888 4675,915 4682,890 4684,915 4687,889 4694,914 4691,889 4703,911 4695,887 4711,906 4699,885 4700,885 4718,900 4702,881 4725,893 4706,878 4729,885 4707,873 4732,876 4708,869 4733,866 4708,864 4731,857 4707,859 4730,847 4705,855 4725,839 4703,851 4719,832 4700,848 4711,826 4696,845 4703,821 4691,844 4694,818 4687,843 4684,817 4682,843 4675,818 "/>
  </g>
 </g>
 <g id="hb">
  <metadata id="CorelCorpID_1Corel-Layer"/>
  <path id="hb2" class="fil10" d="M2849 964c5,26 -11,54 -49,84 -27,23 -58,41 -91,54 119,2 234,46 160,179 19,15 30,28 32,36 3,13 -8,17 -14,11 -11,-13 -21,-23 -30,-29 -71,101 -255,186 -381,160 -46,-9 -72,-29 -79,-60 -16,-77 57,-135 128,-155 12,-58 26,-115 42,-172 5,-18 14,-45 27,-80 11,-25 58,-37 50,-17 -36,79 -67,167 -92,264 123,-24 219,-16 290,24 32,-68 8,-120 -74,-136 -43,-8 -83,-5 -127,4 -8,2 -20,6 -22,-3 -2,-9 4,-17 20,-23 8,-3 21,-8 37,-14 63,-28 106,-59 131,-93 33,-49 -5,-64 -73,-63 -35,1 -71,5 -108,13 -97,21 -184,57 -261,111 -17,11 -18,-9 -8,-26 6,-10 12,-17 17,-21 87,-59 240,-96 356,-96 72,0 112,16 119,48zm-18 320c-79,-43 -197,-48 -284,-23 -18,75 -27,133 -17,155 3,8 5,17 -5,19 -33,7 -16,-105 -5,-165 -69,27 -98,68 -87,123 6,25 26,41 62,48 116,24 277,-58 336,-157zm178 -220c6,27 -37,47 -44,16 -6,-28 37,-48 44,-16zm86 136c1,3 0,8 -3,14 -35,76 -70,117 -105,125 -30,6 -48,-7 -55,-39 -3,-16 -3,-39 2,-70 4,-28 10,-50 18,-67 8,-19 31,-8 34,6 0,3 0,6 -2,10 -18,48 -24,86 -18,114 4,20 14,28 28,25 51,-11 91,-123 95,-124 3,-1 5,1 6,6zm241 -55c1,4 0,9 -2,15 -28,76 -63,118 -104,127 -31,7 -49,-8 -57,-43 -7,-33 -3,-71 12,-114 -19,11 -53,2 -56,-16 -4,18 -36,117 -51,121 -7,1 -4,-8 -2,-13 15,-33 28,-75 40,-125 0,-4 -10,-15 -7,-62 4,-63 39,-28 44,-3 3,13 -4,35 -20,66 16,30 44,24 59,-3 7,-12 12,-19 16,-20 10,-2 21,7 23,17 0,-1 -6,19 -17,60 -11,42 -29,125 22,114 51,-10 91,-124 96,-125 2,-1 4,1 4,4zm171 -33c6,25 -155,234 -189,76 -7,-35 -5,-74 6,-119 -38,9 -59,6 -62,-9 0,-3 2,-5 7,-6l64 -10c2,-6 9,-30 21,-73 10,-33 19,-55 27,-66 15,-22 53,-25 48,-12 -5,11 -13,27 -23,48 -17,37 -30,70 -40,98 21,-3 45,-9 67,-14 6,-1 10,0 11,3 1,8 -26,19 -82,32 -12,34 -34,174 30,160 39,-8 85,-65 102,-102 3,-6 12,-15 13,-6zm234 -409c7,36 -11,90 -54,164 -18,31 -52,81 -102,150 -12,16 -28,40 -49,73 -3,5 -17,79 -14,84 1,1 1,1 2,2 12,-27 75,-138 94,-157 4,-4 8,-7 11,-8 13,-2 20,2 23,13 -14,62 -20,101 -16,117 4,19 14,27 31,24 59,-13 84,-139 91,-110 0,4 0,9 -1,15 -24,69 -56,108 -96,116 -66,14 -62,-81 -55,-131 -13,17 -27,41 -43,73 -16,31 -28,57 -34,77 -5,6 -12,9 -20,11 -14,3 -23,1 -24,-6 -3,-12 2,-47 14,-104 18,-86 42,-167 70,-244 44,-118 86,-182 128,-191 23,-5 38,6 44,32zm-27 13c-4,-18 -12,-26 -24,-23 -29,6 -61,60 -96,161 -23,70 -41,136 -53,201 30,-31 67,-85 111,-163 47,-87 68,-146 62,-176zm287 -77c12,58 -30,176 -127,355 0,20 3,38 6,55 9,41 22,60 39,56 12,-2 26,-19 42,-50 16,-31 25,-47 27,-47 5,-1 3,11 1,16 -22,62 -49,96 -81,103 -49,10 -60,-59 -61,-103 -26,84 -54,129 -83,135 -16,4 -27,-4 -31,-22 -7,-34 2,-76 28,-128 26,-56 56,-85 88,-89 7,-88 30,-295 110,-312 22,-5 37,5 42,31zm-31 9c-3,-12 -9,-17 -19,-15 -26,6 -47,56 -62,152 -10,62 -15,124 -15,185 74,-165 106,-272 96,-322zm-121 312c-1,-3 -7,-3 -12,-2 -22,4 -42,26 -60,65 -18,39 -25,70 -20,93 2,12 8,17 16,15 12,-3 25,-18 38,-46 7,-14 41,-110 38,-125zm375 2c1,3 0,7 -2,13 -19,50 -40,94 -80,102 -46,10 -63,-37 -68,-85 -22,72 -48,111 -76,117 -16,4 -27,-3 -31,-22 -6,-28 1,-65 19,-110 19,-46 40,-76 64,-90 8,-6 16,-9 25,-11 20,-4 35,-1 47,11 9,10 -5,5 -9,16 -8,24 -8,57 1,99 8,39 21,57 38,54 11,-3 26,-20 42,-51 16,-30 25,-46 27,-46 1,-1 3,0 3,3zm-137 -60c-25,-1 -49,24 -66,57 -25,47 -34,83 -29,108 2,12 7,17 15,15 12,-2 25,-18 38,-47 20,-39 33,-84 42,-133zm325 135c2,8 -2,5 -9,3 -8,-3 -29,1 -40,5 -3,85 -16,154 -37,205 -40,98 -94,154 -160,168 -51,11 -99,-11 -110,-64 -12,-58 18,-122 89,-193 60,-59 121,-101 185,-125 0,-36 -2,-87 -6,-155 -6,32 -35,107 -53,136 -11,17 -22,27 -35,30 -17,4 -29,-10 -35,-40 -4,-17 -3,-39 3,-66 6,-31 17,-48 32,-51 8,-2 12,0 13,4 1,4 -27,72 -21,101 3,18 10,25 20,23 17,-3 42,-66 75,-186 -1,-9 5,-14 18,-17 9,-2 15,-1 16,4 5,25 6,175 5,209l3 -1c29,-7 44,-4 47,10zm-80 13c-69,28 -173,111 -215,172 -32,48 -45,91 -37,130 20,92 165,82 228,-109 18,-55 26,-119 24,-193zm286 -470c-36,92 -86,234 -99,287 -2,8 -5,20 -9,36 -3,14 -15,17 -16,9 -2,-10 10,-65 38,-166 26,-95 43,-154 52,-179 0,-1 1,-2 2,-2 5,-1 31,8 32,15zm-115 411c3,13 -3,21 -16,24 -14,3 -23,-2 -26,-15 -2,-13 3,-21 17,-24 14,-3 22,2 25,15zm318 -455c-36,93 -86,235 -99,288 -2,8 -5,20 -9,36 -3,14 -15,17 -16,8 -2,-9 10,-64 38,-166 26,-94 43,-153 52,-178 3,-8 33,7 34,12zm-115 412c3,13 -3,21 -16,24 -14,3 -23,-2 -26,-15 -2,-13 3,-21 17,-24 14,-3 22,2 25,15zm318 -455c-36,92 -86,235 -99,288 -2,8 -5,20 -9,36 -3,14 -15,17 -16,8 -2,-9 10,-64 38,-166 26,-94 43,-153 52,-178 3,-8 33,7 34,12zm-115 412c3,13 -3,21 -16,24 -14,3 -23,-2 -26,-15 -2,-13 3,-21 17,-24 14,-3 22,2 25,15z"/>
  <path id="hb1" class="fil10" d="M1323 1224c0,1 0,3 -1,4 -48,105 -82,200 -100,286 86,21 65,65 54,67 -9,2 -15,-6 -11,-14 7,-15 -17,-26 -47,-33 -14,75 -18,129 -11,162 4,19 12,28 23,26 11,-3 28,-26 31,-27 10,-2 15,11 -4,28 -10,9 -18,14 -25,15 -73,16 -51,-138 -38,-208 -31,-3 -70,-2 -118,3 -21,72 -57,141 -108,205 -58,74 -120,118 -184,132 -70,15 -149,-6 -165,-81 -14,-67 30,-127 134,-182 69,-36 149,-64 240,-83 19,-4 37,-7 51,-9 11,-63 37,-245 -42,-177 -12,10 -20,20 -23,7 -3,-17 46,-42 60,-45 72,-16 53,145 43,210 49,-3 87,-3 115,0 19,-97 47,-212 78,-267 9,-16 46,-27 48,-19zm-285 314c-12,2 -27,4 -42,8 -82,17 -156,43 -221,77 -97,51 -139,106 -127,165 13,59 77,74 132,62 58,-12 113,-53 165,-122 44,-59 75,-123 93,-190zm526 -10c1,2 0,7 -2,12 -20,51 -40,94 -80,103 -46,9 -64,-38 -68,-85 -22,72 -48,111 -76,117 -17,3 -27,-4 -31,-22 -6,-29 0,-65 19,-111 19,-45 40,-75 63,-89 9,-6 17,-10 26,-12 19,-4 35,0 46,12 10,10 -4,4 -8,16 -9,24 -8,57 1,99 8,39 21,57 37,53 12,-2 26,-19 43,-50 16,-31 25,-47 27,-47 1,0 2,1 3,4zm-138 -60c-24,-1 -49,24 -66,56 -24,47 -34,83 -28,109 2,11 7,16 15,15 12,-3 24,-19 38,-48 19,-39 33,-83 41,-132zm406 -3c0,4 0,8 -2,15 -10,26 -28,54 -55,84 -30,34 -56,53 -80,58 -5,1 -12,2 -22,4 -24,4 -17,5 -47,4 -7,47 -20,97 -39,151 -26,74 -52,114 -78,120 -13,3 -22,-6 -27,-26 -5,-27 9,-81 42,-163 25,-55 49,-111 74,-166l-12 -56c-14,38 -23,57 -29,58 -6,2 -7,-7 -5,-11 17,-39 23,-71 17,-98 -3,-13 -11,-14 -13,-17 -1,-4 7,-8 24,-12 18,-3 31,13 39,50l8 47c14,-46 51,-145 93,-154 18,-3 29,8 35,33 13,64 -18,177 -65,223 47,-12 91,-59 133,-143 3,-6 7,-8 9,-1zm-110 -54c-4,-21 -14,-28 -27,-19 -38,27 -60,139 -64,192 7,7 19,15 35,25 22,-16 38,-46 49,-92 11,-43 13,-78 7,-106zm-122 180c-3,-2 -6,3 -9,10 -8,22 -22,55 -40,98 -11,27 -47,138 -41,164 1,5 3,7 6,7 24,-6 48,-51 74,-138 6,-23 10,-61 12,-114 -1,-5 -7,-13 -2,-27zm497 -183c1,4 0,9 -2,15 -9,26 -27,55 -55,85 -29,33 -55,52 -79,57 -5,1 -13,3 -22,4 -25,5 -18,6 -47,4 -8,47 -21,97 -39,151 -27,75 -53,115 -78,120 -14,3 -23,-5 -27,-25 -6,-27 8,-81 42,-164 24,-55 49,-110 74,-166l-13 -56c-13,38 -23,58 -28,59 -7,1 -7,-7 -5,-12 17,-38 22,-71 16,-97 -2,-13 -10,-14 -12,-17 -1,-4 7,-8 23,-12 19,-4 32,13 40,49l7 48c14,-46 51,-145 94,-154 17,-4 29,7 34,33 14,63 -18,176 -65,222 47,-11 92,-59 134,-143 2,-5 7,-8 8,-1zm-109 -54c-4,-20 -14,-28 -27,-19 -39,27 -60,139 -64,192 7,7 18,16 35,25 21,-15 38,-46 49,-91 11,-43 13,-79 7,-107zm-122 181c-3,-2 -7,3 -9,9 -9,22 -22,55 -40,99 -12,27 -47,138 -42,164 1,5 3,7 7,6 23,-5 48,-51 73,-138 7,-23 11,-61 12,-113 -1,-6 -6,-13 -1,-27zm417 -46c2,8 -2,6 -9,3 -9,-3 -29,2 -40,5 -3,86 -16,154 -37,206 -40,98 -94,154 -160,168 -51,11 -99,-12 -110,-64 -12,-58 17,-122 89,-193 60,-60 121,-102 185,-126 0,-35 -2,-87 -6,-155 -6,33 -35,108 -53,136 -11,18 -22,28 -35,31 -17,3 -29,-10 -36,-40 -3,-18 -2,-40 3,-66 7,-31 18,-48 33,-51 7,-2 12,-1 13,4 0,4 -28,72 -21,101 3,17 10,25 20,23 17,-4 42,-66 75,-187 -1,-8 5,-14 17,-16 10,-2 16,-1 16,3 6,25 6,175 6,209l3 0c29,-7 44,-4 47,9zm-80 14c-69,27 -173,111 -215,172 -33,48 -45,91 -37,129 20,93 165,82 227,-108 19,-55 27,-119 25,-193z"/>
 </g>
 <g id="nth">
  <metadata id="CorelCorpID_2Corel-Layer"/>
  <path class="fil11" d="M2323 2279c-20,-97 -23,-197 -43,-294l-10 -47c-21,32 -79,276 -116,350 -68,137 -220,79 -248,-51l4 -27c50,26 71,119 139,105 43,-10 65,-43 84,-81l32 -71c27,-82 68,-195 84,-278 3,-14 5,-50 19,-53 32,-7 37,63 41,82l30 187 12 56c24,-115 48,-333 101,-429 17,-31 42,-61 78,-68 -169,172 -119,810 -207,619zm192 -47c-7,-31 18,-76 31,-109 33,-83 24,-84 61,-89 23,-2 -1,46 -5,55 -20,42 -51,91 -41,139 54,-12 19,8 93,-30 6,-4 11,-6 13,-7 5,24 1,34 -30,52 -33,18 -110,45 -122,-11zm109 -425c30,-6 49,1 48,36 0,25 -37,18 -48,-36zm42 371c-11,-55 24,-108 28,-161 -18,16 -34,16 -57,21 3,-56 70,-79 78,-88 11,-12 32,-152 49,-199 8,-20 20,-40 37,-60l8 24 -41 210c16,-9 82,-39 99,-34 4,1 9,5 13,12 -73,40 -141,79 -160,164 -7,28 -11,81 2,118 12,33 79,-31 91,-40 8,-6 17,-10 27,-12 11,52 -148,163 -174,45zm415 -21c-40,15 -88,-35 -72,-75 9,-20 55,-119 10,-103 -55,19 -133,134 -132,192 -44,41 -51,-20 -18,-78 32,-59 33,-53 53,-123 11,-39 49,-195 67,-219 6,-8 21,-5 22,12 3,42 -7,67 -18,111l-19 83c46,-47 129,-49 103,42 -7,24 -54,135 -5,125 45,-10 67,-43 106,-51 8,36 -68,78 -97,84zm81 -54c-72,-98 60,-247 111,-209 18,14 14,57 4,75 -29,55 -124,124 -24,110 6,-1 11,-1 13,-1 20,-5 103,-49 128,-44 31,7 -169,133 -232,69zm83 -173c-36,7 -54,55 -56,88 23,7 61,-67 56,-88zm142 126c-72,-98 59,-248 110,-210 19,14 15,57 5,76 -29,54 -125,123 -24,109 6,0 10,-1 13,-1 20,-5 103,-49 128,-43 31,7 -169,132 -232,69zm83 -174c-36,7 -55,55 -57,88 24,7 61,-66 57,-88zm131 88c-5,-23 2,-41 29,-37 13,66 56,63 107,34 70,-40 80,-128 46,-139 -18,-7 -61,-2 -66,-25 -9,-42 99,-101 132,-108 10,48 -44,44 -58,79 31,17 42,28 49,63 34,157 -212,262 -239,133zm553 -41c-40,15 -88,-35 -71,-75 8,-20 54,-119 9,-103 -54,18 -133,134 -132,192 -43,41 -50,-20 -18,-78 33,-59 34,-53 54,-123 11,-39 49,-195 66,-219 6,-8 22,-5 23,12 2,41 -8,67 -18,111l-19 83c45,-47 129,-49 102,42 -7,24 -53,135 -5,125 46,-10 68,-43 107,-52 7,37 -69,79 -98,85zm81 -63c-5,-97 67,-231 160,-221 14,2 27,8 38,20 16,29 -49,112 -6,150 22,19 66,-14 96,-19 4,-1 7,-1 8,-1 -16,37 -109,102 -148,36 -4,-7 -6,-13 -8,-20 -20,35 -70,117 -121,83 -10,-7 -17,-16 -19,-28zm39 -29c7,31 20,19 46,-7 29,-29 73,-89 58,-131 0,-2 -1,-4 -1,-5 -60,13 -117,80 -103,143z"/>
 </g>
 <g id="heart">
  <metadata id="CorelCorpID_3Corel-Layer"/>
  <path class="fil12" d="M4806 1440c26,-52 51,-78 102,-78 56,0 102,47 102,104 0,103 -102,207 -204,311 -101,-104 -203,-208 -203,-311 0,-57 46,-104 102,-104 51,0 76,26 101,78z"/>
 </g>
 <g id="centres" visibility="hidden">
  <metadata id="CorelCorpID_4Corel-Layer"/>
  <circle id="c1" class="fil7 str0" cx="1450" cy="1501" r="143"/>
  <circle id="c2" class="fil7 str0" cx="3687" cy="911" r="143"/>
  <circle id="c3" class="fil7 str0" cx="4806" cy="1509" r="143"/>
 </g>
 <g id="barcode">
  <metadata id="CorelCorpID_5Corel-Layer"/>
  <path class="fil13" d="M4833 2731l0 -69 10 0 0 69 -10 0zm14 0l0 -69 3 0 0 69 -3 0zm14 0l0 -69 7 0 0 69 -7 0zm-19 10l3 0 3 19 4 -17 1 0 4 17 3 -19 2 0 -4 28 -1 0 -5 -18 -5 18 -1 0 -4 -28zm30 -10l0 -69 3 0 0 69 -3 0zm17 0l0 -69 7 0 0 69 -7 0zm11 0l0 -69 3 0 0 69 -3 0zm-16 35l6 0 0 -15 -5 0 0 -2 8 0 0 17 4 0 0 3 -13 0 0 -3zm7 -22c-1,0 -1,0 -2,0 0,-1 0,-1 0,-2 0,-1 0,-1 0,-1 1,-1 1,-1 2,-1 0,0 1,0 1,1 1,0 1,1 1,1 0,1 0,1 -1,2 0,0 -1,0 -1,0zm19 -13l0 -69 4 0 0 69 -4 0zm11 0l0 -69 14 0 0 69 -14 0zm18 0l0 -69 3 0 0 69 -3 0zm-1 36c-2,1 -4,2 -6,2 -2,0 -4,-1 -5,-2 -1,-1 -1,-4 -1,-7 0,0 0,-1 0,-2l0 -7 -4 0 0 -2 4 0 1 -6 3 0 1 0 0 0c0,0 -1,0 -1,1 0,0 0,0 0,1l0 4 6 0 0 2 -7 0 0 7c0,1 0,2 0,2 0,3 0,4 1,5 0,1 1,1 2,1 1,0 2,0 3,0 1,-1 1,-1 2,-2l1 3zm11 -36l0 -69 4 0 0 69 -4 0zm11 0l0 -69 7 0 0 69 -7 0zm21 0l0 -69 4 0 0 69 -4 0zm-20 9l3 0 0 0c0,0 0,0 0,0 0,1 0,1 0,1l0 11c1,-1 2,-2 3,-3 1,-1 2,-1 4,-1 1,0 3,1 4,2 1,1 2,4 2,6l0 13 -3 0 0 -12c0,-2 -1,-4 -1,-5 -1,-1 -2,-1 -3,-1 -1,0 -2,0 -3,1 -1,0 -2,1 -2,2 -1,1 -1,2 -1,3l0 12 -3 0 0 -29zm27 -9l0 -69 4 0 0 69 -4 0zm7 0l0 -69 4 0 0 69 -4 0zm11 0l0 -69 7 0 0 69 -7 0zm21 0l0 -69 3 0 0 69 -3 0zm14 0l0 -69 7 0 0 69 -7 0zm11 0l0 -69 10 0 0 69 -10 0zm-14 10l4 0 0 1c0,0 0,0 -1,0 0,0 0,1 0,1l0 23 14 0 0 3 -17 0 0 -28zm28 -10l0 -69 3 0 0 69 -3 0zm14 0l0 -69 14 0 0 69 -14 0zm18 0l0 -69 3 0 0 69 -3 0zm-13 38c-2,0 -3,0 -5,-1 -1,-1 -2,-2 -3,-4 -1,-2 -1,-3 -1,-5 0,-2 0,-4 1,-6 1,-1 2,-3 3,-3 2,-1 3,-2 5,-2 2,0 4,1 5,2 1,0 2,2 3,3 1,2 1,4 1,6 0,2 0,3 -1,5 -1,2 -2,3 -3,4 -1,1 -3,1 -5,1zm0 -3c1,0 2,0 3,-1 1,0 2,-1 2,-2 1,-2 1,-3 1,-5 0,-2 -1,-4 -2,-5 -1,-1 -2,-2 -4,-2 -2,0 -3,1 -4,2 -1,1 -2,3 -2,5 0,2 1,3 1,5 1,1 1,2 2,2 1,1 2,1 3,1zm20 -35l0 -69 14 0 0 69 -14 0zm17 0l0 -69 4 0 0 69 -4 0zm11 0l0 -69 3 0 0 69 -3 0zm0 18c-1,2 -2,5 -3,8l-5 12 -2 0 -8 -20 3 0 6 15 3 -7c2,-3 3,-6 3,-8l3 0zm10 -18l0 -69 4 0 0 69 -4 0zm7 0l0 -69 8 0 0 69 -8 0zm15 0l0 -69 3 0 0 69 -3 0zm-1 38c-3,0 -6,-1 -7,-3 -2,-1 -3,-4 -3,-7 0,-2 0,-4 1,-6 1,-2 2,-3 4,-4 1,0 2,-1 4,-1 3,0 5,1 6,2 2,2 2,5 2,8 0,0 0,0 0,1l-14 0c0,2 1,4 2,6 1,1 3,1 5,1 2,0 4,0 5,-2l2 2c-2,2 -4,3 -7,3zm4 -12c0,-2 0,-4 -1,-5 -1,-1 -2,-2 -4,-2 -1,0 -3,1 -4,2 -1,1 -2,3 -2,5l11 0z"/>
  <path class="fil13" d="M58 2761l0 -36 14 0c2,0 5,0 6,1 2,0 3,2 4,3 1,2 2,3 2,5 0,2 -1,3 -1,4 -1,2 -3,3 -4,4 2,0 4,2 5,3 1,2 2,4 2,6 0,1 -1,3 -1,5 -1,1 -2,2 -3,3 -1,1 -3,1 -4,2 -2,0 -4,0 -6,0l-14 0zm5 -21l8 0c2,0 3,0 4,0 2,-1 2,-1 3,-2 1,-1 1,-2 1,-3 0,-2 0,-3 -1,-4 0,-1 -1,-1 -2,-2 -1,0 -3,0 -6,0l-7 0 0 11zm0 17l9 0c1,0 3,0 3,0 1,0 2,-1 3,-1 1,-1 1,-1 2,-2 0,-1 1,-2 1,-3 0,-2 -1,-3 -1,-4 -1,-1 -2,-2 -3,-2 -2,0 -3,-1 -6,-1l-8 0 0 13z"/>
  <path id="1" class="fil13" d="M110 2753l5 0c-1,3 -2,5 -4,7 -2,1 -5,2 -8,2 -4,0 -7,-1 -9,-4 -3,-2 -4,-5 -4,-10 0,-4 1,-8 4,-10 2,-3 5,-4 9,-4 3,0 6,1 8,4 3,2 4,6 4,10 0,0 0,1 0,1l-20 0c0,3 1,5 2,7 2,1 4,2 6,2 2,0 3,0 4,-1 1,-1 2,-2 3,-4zm-15 -7l15 0c0,-3 -1,-4 -2,-6 -1,-1 -3,-2 -5,-2 -2,0 -4,1 -6,2 -1,1 -2,3 -2,6z"/>
  <path id="2" class="fil13" d="M119 2753l4 0c0,2 1,3 2,4 1,1 3,1 5,1 2,0 4,0 5,-1 1,-1 1,-2 1,-3 0,-1 0,-2 -1,-2 -1,-1 -3,-1 -5,-2 -3,-1 -6,-1 -7,-2 -1,-1 -2,-2 -3,-3 0,-1 -1,-2 -1,-3 0,-1 1,-2 1,-3 1,-1 1,-2 2,-3 1,0 2,-1 3,-1 1,-1 3,-1 4,-1 2,0 4,0 6,1 1,1 2,2 3,3 1,1 1,2 2,4l-5 0c0,-1 -1,-2 -2,-3 0,-1 -2,-1 -4,-1 -2,0 -3,0 -4,1 -1,1 -1,1 -1,2 0,1 0,1 0,2 1,0 1,1 2,1 0,0 2,1 4,1 3,1 5,2 7,2 1,1 2,2 3,3 0,1 1,2 1,4 0,1 -1,2 -2,4 -1,1 -2,2 -3,3 -2,1 -4,1 -6,1 -4,0 -6,-1 -8,-2 -2,-2 -3,-4 -3,-7z"/>
  <path id="3" class="fil13" d="M156 2757l0 4c-1,1 -2,1 -3,1 -2,0 -3,0 -4,-1 -1,-1 -1,-1 -2,-2 0,-1 0,-3 0,-5l0 -16 -4 0 0 -3 4 0 0 -7 4 -3 0 10 5 0 0 3 -5 0 0 16c0,1 0,2 1,2 0,1 0,1 0,1 1,0 1,1 2,1 0,0 1,-1 2,-1z"/>
  <path id="4" class="fil13" d="M182 2761l-10 -26 5 0 5 16c1,1 1,3 2,5 0,-1 1,-3 2,-5l6 -16 4 0 -10 26 -4 0z"/>
  <path id="5" class="fil13" d="M200 2730l0 -5 5 0 0 5 -5 0zm0 31l0 -26 5 0 0 26 -5 0z"/>
  <path id="6" class="fil13" d="M230 2753l5 0c-1,3 -3,5 -5,7 -2,1 -4,2 -7,2 -4,0 -7,-1 -9,-4 -3,-2 -4,-5 -4,-10 0,-4 1,-8 4,-10 2,-3 5,-4 9,-4 3,0 6,1 8,4 3,2 4,6 4,10 0,0 0,1 0,1l-20 0c0,3 1,5 2,7 2,1 4,2 6,2 1,0 3,0 4,-1 1,-1 2,-2 3,-4zm-15 -7l15 0c0,-3 -1,-4 -2,-6 -1,-1 -3,-2 -5,-2 -2,0 -4,1 -6,2 -1,1 -2,3 -2,6z"/>
  <path id="7" class="fil13" d="M245 2761l-8 -26 5 0 4 15 1 6c1,0 1,-2 2,-6l4 -15 5 0 4 15 1 5 2 -5 4 -15 5 0 -9 26 -5 0 -4 -16 -1 -4 -5 20 -5 0z"/>
  <path id="8" class="fil13" d="M296 2753l4 0c-1,3 -2,5 -4,7 -2,1 -4,2 -8,2 -3,0 -6,-1 -9,-4 -2,-2 -3,-5 -3,-10 0,-4 1,-8 3,-10 3,-3 6,-4 9,-4 4,0 7,1 9,4 2,2 3,6 3,10 0,0 0,1 0,1l-20 0c1,3 1,5 3,7 1,1 3,2 5,2 2,0 4,0 5,-1 1,-1 2,-2 3,-4zm-15 -7l15 0c-1,-3 -1,-4 -2,-6 -2,-1 -3,-2 -6,-2 -2,0 -4,1 -5,2 -1,1 -2,3 -2,6z"/>
  <path id="9" class="fil13" d="M323 2761l0 -3c-2,3 -4,4 -7,4 -2,0 -4,-1 -6,-2 -2,-1 -3,-3 -4,-5 -1,-2 -2,-4 -2,-7 0,-3 1,-5 2,-7 0,-2 2,-4 4,-5 1,-1 3,-2 5,-2 2,0 3,1 5,1 1,1 2,2 3,3l0 -13 4 0 0 36 -4 0zm-14 -13c0,4 1,6 2,8 1,1 3,2 5,2 2,0 4,-1 5,-2 2,-2 2,-4 2,-8 0,-3 0,-6 -2,-8 -1,-1 -3,-2 -5,-2 -2,0 -4,1 -5,2 -1,2 -2,5 -2,8z"/>
  <path id="10" class="fil13" d="M347 2748c0,-5 1,-8 4,-11 2,-2 5,-3 9,-3 3,0 6,1 9,4 2,2 3,5 3,10 0,3 0,6 -2,8 -1,2 -2,3 -4,4 -2,1 -4,2 -6,2 -4,0 -7,-1 -9,-4 -3,-2 -4,-5 -4,-10zm5 0c0,3 0,6 2,8 1,1 3,2 6,2 2,0 4,-1 5,-2 2,-2 2,-5 2,-8 0,-3 0,-6 -2,-8 -1,-1 -3,-2 -5,-2 -3,0 -5,1 -6,2 -2,2 -2,5 -2,8z"/>
  <path id="11" class="fil13" d="M377 2761l0 -26 4 0 0 4c2,-3 5,-5 9,-5 1,0 3,0 4,1 2,1 3,1 3,2 1,1 1,2 2,4 0,0 0,2 0,4l0 16 -5 0 0 -16c0,-2 0,-3 0,-4 0,-1 -1,-2 -2,-2 -1,-1 -2,-1 -3,-1 -2,0 -4,1 -5,2 -1,1 -2,3 -2,7l0 14 -5 0z"/>
  <polygon id="12" class="fil13" points="420,2761 420,2725 425,2725 425,2761 "/>
  <path id="13" class="fil13" d="M449 2758c-2,2 -3,2 -5,3 -1,1 -3,1 -5,1 -3,0 -5,-1 -7,-2 -1,-2 -2,-3 -2,-6 0,-1 0,-2 1,-3 1,-1 1,-2 2,-3 1,0 2,-1 4,-1 0,0 2,-1 4,-1 3,0 6,-1 8,-1 0,-1 0,-2 0,-2 0,-1 -1,-3 -2,-4 -1,-1 -3,-1 -5,-1 -2,0 -3,0 -5,1 -1,1 -1,2 -2,4l-4 -1c0,-1 1,-3 2,-4 1,-1 2,-2 4,-3 2,-1 4,-1 6,-1 2,0 4,0 5,1 2,1 3,1 4,2 0,1 1,2 1,3 0,1 0,2 0,4l0 6c0,4 0,7 1,8 0,1 0,2 1,3l-5 0c-1,-1 -1,-2 -1,-3zm0 -10c-2,1 -4,1 -8,2 -2,0 -3,0 -4,1 0,0 -1,0 -1,1 -1,1 -1,1 -1,2 0,1 0,2 1,3 1,1 3,1 4,1 2,0 4,0 5,-1 1,0 2,-1 3,-3 0,-1 1,-2 1,-4l0 -2z"/>
  <path id="14" class="fil13" d="M460 2772l0 -37 4 0 0 3c1,-1 2,-2 4,-3 1,0 2,-1 4,-1 2,0 4,1 6,2 2,1 3,3 4,5 1,2 1,4 1,7 0,3 0,5 -1,7 -1,2 -3,4 -4,5 -2,1 -4,2 -6,2 -2,0 -3,0 -4,-1 -2,-1 -3,-1 -3,-2l0 13 -5 0zm4 -24c0,4 1,6 2,8 2,1 3,2 5,2 2,0 4,-1 6,-2 1,-2 2,-5 2,-8 0,-4 -1,-6 -2,-8 -2,-1 -3,-2 -5,-2 -2,0 -4,1 -5,2 -2,2 -3,5 -3,8z"/>
  <path id="15" class="fil13" d="M499 2757l0 4c-1,1 -2,1 -3,1 -2,0 -3,0 -4,-1 -1,-1 -2,-1 -2,-2 0,-1 0,-3 0,-5l0 -16 -4 0 0 -3 4 0 0 -7 4 -3 0 10 5 0 0 3 -5 0 0 16c0,1 0,2 0,2 0,1 1,1 1,1 0,0 1,1 2,1 0,0 1,-1 2,-1z"/>
  <path id="16" class="fil13" d="M501 2748c0,-5 2,-8 4,-11 3,-2 6,-3 9,-3 3,0 6,1 9,4 2,2 3,5 3,10 0,3 0,6 -1,8 -1,2 -3,3 -5,4 -2,1 -4,2 -6,2 -4,0 -7,-1 -9,-4 -3,-2 -4,-5 -4,-10zm5 0c0,3 1,6 2,8 2,1 4,2 6,2 2,0 4,-1 5,-2 2,-2 3,-5 3,-8 0,-3 -1,-6 -3,-8 -1,-1 -3,-2 -5,-2 -2,0 -4,1 -6,2 -1,2 -2,5 -2,8z"/>
  <path id="17" class="fil13" d="M532 2772l0 -37 4 0 0 3c1,-1 2,-2 3,-3 1,0 3,-1 4,-1 3,0 5,1 6,2 2,1 4,3 4,5 1,2 2,4 2,7 0,3 -1,5 -2,7 -1,2 -2,4 -4,5 -2,1 -4,2 -6,2 -1,0 -3,0 -4,-1 -1,-1 -2,-1 -3,-2l0 13 -4 0zm4 -24c0,4 0,6 2,8 1,1 3,2 5,2 2,0 4,-1 5,-2 1,-2 2,-5 2,-8 0,-4 -1,-6 -2,-8 -1,-1 -3,-2 -5,-2 -2,0 -4,1 -5,2 -2,2 -2,5 -2,8z"/>
  <polygon id="18" class="fil13" points="557,2762 567,2724 571,2724 560,2762 "/>
  <path id="19" class="fil13" d="M579 2761l-5 0 0 -36 5 0 0 13c2,-3 4,-4 7,-4 2,0 3,1 5,1 1,1 3,2 3,3 1,1 2,3 3,4 0,2 1,4 1,6 0,4 -2,8 -4,10 -2,3 -5,4 -8,4 -3,0 -6,-1 -7,-4l0 3zm0 -13c0,3 0,5 1,7 1,2 3,3 6,3 2,0 3,-1 5,-2 1,-2 2,-5 2,-8 0,-3 -1,-6 -2,-8 -2,-1 -3,-2 -5,-2 -2,0 -4,1 -5,2 -2,2 -2,5 -2,8z"/>
  <path id="20" class="fil13" d="M603 2730l0 -5 5 0 0 5 -5 0zm0 31l0 -26 5 0 0 26 -5 0z"/>
  <path id="21" class="fil13" d="M614 2764l4 0c0,2 1,3 2,3 1,1 2,1 4,1 2,0 4,0 5,-1 1,-1 2,-2 2,-3 1,-1 1,-3 1,-6 -2,2 -5,3 -8,3 -3,0 -6,-1 -8,-4 -2,-2 -3,-5 -3,-9 0,-3 0,-5 1,-7 1,-2 2,-4 4,-5 2,-1 4,-2 6,-2 3,0 6,1 8,4l0 -3 4 0 0 23c0,4 0,7 -1,9 -1,1 -2,3 -4,4 -2,1 -4,1 -7,1 -3,0 -6,-1 -8,-2 -2,-1 -2,-4 -2,-6zm3 -16c0,3 1,6 2,7 2,2 4,3 6,3 2,0 3,-1 5,-3 1,-1 2,-4 2,-7 0,-3 -1,-6 -2,-8 -2,-1 -3,-2 -5,-2 -2,0 -4,1 -6,2 -1,2 -2,4 -2,8z"/>
  <path id="22" class="fil13" d="M655 2753l5 0c0,2 1,3 2,4 1,1 3,1 5,1 2,0 3,0 5,-1 1,-1 1,-2 1,-3 0,-1 0,-2 -1,-2 -1,-1 -3,-1 -5,-2 -3,-1 -6,-1 -7,-2 -1,-1 -2,-2 -3,-3 0,-1 -1,-2 -1,-3 0,-1 1,-2 1,-3 1,-1 1,-2 2,-3 1,0 2,-1 3,-1 1,-1 3,-1 4,-1 2,0 4,0 6,1 1,1 2,2 3,3 1,1 1,2 2,4l-5 0c0,-1 -1,-2 -2,-3 -1,-1 -2,-1 -4,-1 -2,0 -3,0 -4,1 -1,1 -1,1 -1,2 0,1 0,1 0,2 1,0 1,1 2,1 0,0 2,1 4,1 3,1 5,2 7,2 1,1 2,2 3,3 0,1 1,2 1,4 0,1 -1,2 -2,4 -1,1 -2,2 -3,3 -2,1 -4,1 -6,1 -4,0 -6,-1 -8,-2 -2,-2 -3,-4 -4,-7z"/>
  <path id="23" class="fil13" d="M700 2752l5 0c-1,3 -2,6 -4,7 -2,2 -4,3 -7,3 -4,0 -7,-1 -9,-4 -2,-2 -3,-5 -3,-10 0,-3 0,-5 1,-7 1,-3 2,-4 4,-5 2,-1 4,-2 7,-2 3,0 5,1 7,2 2,2 3,4 3,7l-4 0c0,-2 -1,-3 -2,-4 -1,-1 -3,-1 -4,-1 -2,0 -4,1 -6,2 -1,2 -2,5 -2,8 0,4 1,6 2,8 2,1 3,2 6,2 1,0 3,0 4,-1 1,-1 2,-3 2,-5z"/>
  <path id="24" class="fil13" d="M709 2761l0 -26 4 0 0 4c1,-2 2,-3 3,-4 0,-1 1,-1 2,-1 2,0 4,1 5,2l-2 4c-1,-1 -2,-1 -3,-1 -1,0 -2,0 -2,1 -1,0 -2,1 -2,2 -1,2 -1,4 -1,5l0 14 -4 0z"/>
  <path id="25" class="fil13" d="M744 2753l5 0c-1,3 -2,5 -4,7 -2,1 -5,2 -8,2 -4,0 -7,-1 -9,-4 -3,-2 -4,-5 -4,-10 0,-4 1,-8 4,-10 2,-3 5,-4 9,-4 3,0 6,1 8,4 3,2 4,6 4,10 0,0 0,1 0,1l-20 0c0,3 1,5 2,7 2,1 4,2 6,2 2,0 3,0 4,-1 1,-1 2,-2 3,-4zm-15 -7l15 0c0,-3 -1,-4 -2,-6 -1,-1 -3,-2 -5,-2 -2,0 -4,1 -5,2 -2,1 -3,3 -3,6z"/>
  <path id="26" class="fil13" d="M773 2753l4 0c-1,3 -2,5 -4,7 -2,1 -4,2 -7,2 -4,0 -7,-1 -10,-4 -2,-2 -3,-5 -3,-10 0,-4 1,-8 3,-10 3,-3 6,-4 9,-4 4,0 7,1 9,4 2,2 3,6 3,10 0,0 0,1 0,1l-20 0c1,3 1,5 3,7 1,1 3,2 6,2 1,0 3,0 4,-1 1,-1 2,-2 3,-4zm-15 -7l15 0c-1,-3 -1,-4 -2,-6 -2,-1 -3,-2 -6,-2 -2,0 -4,1 -5,2 -1,1 -2,3 -2,6z"/>
  <path id="27" class="fil13" d="M783 2761l0 -26 4 0 0 4c2,-3 5,-5 8,-5 2,0 4,0 5,1 1,1 2,1 3,2 1,1 1,2 1,4 0,0 1,2 1,4l0 16 -5 0 0 -16c0,-2 0,-3 0,-4 -1,-1 -1,-2 -2,-2 -1,-1 -2,-1 -3,-1 -2,0 -4,1 -5,2 -2,1 -3,3 -3,7l0 14 -4 0z"/>
 </g>
   <rect fill="none" stroke="gray" strike-width="20px" width="5240" height="2800"/>
</svg>
